<svg xmlns="http://www.w3.org/2000/svg" width="112" height="112" viewBox="0 0 112 112"><defs><filter id="sh" x="-20%" y="-20%" width="140%" height="150%"><feDropShadow dx="0" dy="5" stdDeviation="5" flood-color="#000" flood-opacity="0.18"/></filter></defs><g filter="url(#sh)"><circle cx="56" cy="58" r="50" fill="#1E3358"/><circle cx="56" cy="54" r="50" fill="#2E4A7D"/><ellipse cx="44" cy="30" rx="26" ry="11" fill="#fff" opacity=".28"/><g transform="translate(56,55)" color="#2E4A7D"><rect x="-6" y="-32" width="12" height="16" rx="3" fill="#fff" transform="rotate(0)"/><rect x="-6" y="-32" width="12" height="16" rx="3" fill="#fff" transform="rotate(45)"/><rect x="-6" y="-32" width="12" height="16" rx="3" fill="#fff" transform="rotate(90)"/><rect x="-6" y="-32" width="12" height="16" rx="3" fill="#fff" transform="rotate(135)"/><rect x="-6" y="-32" width="12" height="16" rx="3" fill="#fff" transform="rotate(180)"/><rect x="-6" y="-32" width="12" height="16" rx="3" fill="#fff" transform="rotate(225)"/><rect x="-6" y="-32" width="12" height="16" rx="3" fill="#fff" transform="rotate(270)"/><rect x="-6" y="-32" width="12" height="16" rx="3" fill="#fff" transform="rotate(315)"/><circle r="20" fill="#fff"/><circle r="8" fill="currentColor"/></g></g></svg>